# xmcd
#
# Track frame offsets:
#	150
#	22157
#	36550
#	51537
#	73517
#	87937
#
# Disc length: 1369 seconds
#
# Revision: 5
# Processed by: cddbd v1.5PL3 Copyright (c) Steve Scherf et al.
# Submitted via: CDex 1.50Beta5
#
DISCID=56055706
DTITLE=FANATIC◇CRISIS - BLUE ROSE
DYEAR=2002
DGENRE=Japanese Rock
TTITLE0=BLUE ROSE
TTITLE1=CODE NAME "BUTTERFLY"
TTITLE2=CODE NAME "BUTTERFLY" -mode ECLIPSE-
TTITLE3=BLUE ROSE <Instrumental>
TTITLE4=CODE NAME "BUTTERFLY" <Instrumental>
TTITLE5=CODE NAME "BUTTERFLY" -mode ECLIPSE- <Instrumental>
EXTD=KHCM-2004  2002/11/7発売
EXTT0=
EXTT1=
EXTT2=
EXTT3=
EXTT4=
EXTT5=
PLAYORDER=
